<svg width="22" height="22" viewBox="0 0 22 22" fill="none" xmlns="http://www.w3.org/2000/svg">
<path d="M21.678 8.34127C21.5414 7.78626 21.3611 7.24423 21.1392 6.7198C20.594 5.42866 19.799 4.24267 18.7779 3.22208C16.7122 1.15587 13.9682 0.0125084 11.0482 0.000463275C11.032 0 11.0162 0 11 0C10.9838 0 10.968 0 10.9518 0.000463275C8.0318 0.0125084 5.28782 1.15587 3.22208 3.22208C2.20102 4.24267 1.40604 5.42866 0.860765 6.7198C0.638856 7.24423 0.458642 7.78626 0.321976 8.34127C0.109333 9.20064 0 10.092 0 11C0 11.908 0.109333 12.7994 0.321976 13.6587C0.458642 14.2137 0.638856 14.7558 0.860765 15.2802C1.40604 16.5713 2.20102 17.7573 3.22208 18.7779C5.28782 20.8441 8.0318 21.9875 10.9518 21.9995C10.968 22 10.9838 22 11 22C11.0162 22 11.032 22 11.0482 21.9995C13.9682 21.9875 16.7122 20.8441 18.7779 18.7779C19.799 17.7573 20.594 16.5713 21.1392 15.2802C21.3611 14.7558 21.5414 14.2137 21.678 13.6587C21.8907 12.7994 22 11.908 22 11C22 10.092 21.8907 9.20064 21.678 8.34127ZM19.3436 6.7198H14.9494C14.6677 4.85558 14.1957 3.18177 13.5397 1.97077C16.0654 2.68236 18.1632 4.42798 19.3436 6.7198ZM9.32989 4.05505C9.97987 2.13431 10.6854 1.62146 11 1.62146C11.3146 1.62146 12.0201 2.13431 12.6701 4.05505C12.936 4.84169 13.1514 5.74183 13.3104 6.7198H8.68965C8.84855 5.74183 9.06397 4.84169 9.32989 4.05505ZM8.46033 1.97077C7.80433 3.18177 7.33225 4.85558 7.05058 6.7198H2.65642C3.83684 4.42798 5.93455 2.68236 8.46033 1.97077ZM1.62146 11C1.62146 10.0767 1.75535 9.18443 2.00505 8.34127H6.85786C6.78003 9.21315 6.74111 10.1073 6.74111 11C6.74111 11.8927 6.78003 12.7869 6.85786 13.6587H2.00505C1.75535 12.8156 1.62146 11.9233 1.62146 11ZM2.65642 15.2802H7.05058C7.33225 17.1444 7.80433 18.8182 8.46033 20.0292C5.93455 19.3176 3.83684 17.572 2.65642 15.2802ZM12.6701 17.945C12.0201 19.8657 11.3146 20.3785 11 20.3785C10.6854 20.3785 9.97987 19.8657 9.32989 17.945C9.06397 17.1583 8.84855 16.2582 8.68965 15.2802H13.3104C13.1514 16.2582 12.936 17.1583 12.6701 17.945ZM8.48349 13.6587C8.40381 12.8054 8.36258 11.9127 8.36258 11C8.36258 10.0873 8.40381 9.19462 8.48349 8.34127H13.5165C13.5962 9.19462 13.6374 10.0873 13.6374 11C13.6374 11.9127 13.5962 12.8054 13.5165 13.6587H8.48349ZM13.5397 20.0292C14.1957 18.8182 14.6677 17.1444 14.9494 15.2802H19.3436C18.1632 17.572 16.0654 19.3176 13.5397 20.0292ZM19.9949 13.6587H15.1421C15.22 12.7869 15.2589 11.8927 15.2589 11C15.2589 10.1073 15.22 9.21315 15.1421 8.34127H19.9949C20.2447 9.18443 20.3785 10.0767 20.3785 11C20.3785 11.9233 20.2447 12.8156 19.9949 13.6587Z" fill="white"/>
</svg>
